# xmcd
#
# Track frame offsets:
#	150
#	24903
#	54526
#	85534
#	104174
#	129752
#
# Disc length: 1746 seconds
#
# Revision: 0
# Processed by: cddbd v1.4PL0 Copyright (c) Steve Scherf et al.
# Submitted via: audiograbber 1.81.02
#
DISCID=3f06d006
DTITLE=Various Artist - Презентационный CD ЗЗМТ
DYEAR=2003
DGENRE=Instrumental
TTITLE0=Александр Степаненко и гр. Море - Голубые глаза
TTITLE1=Леонид Винтскевич - Я потеряю тебя
TTITLE2=Самкха - Пять
TTITLE3=Султон Али - Волшебная ночь
TTITLE4=Леван Ломидзе и гр. Blues Cousins - Бессонная ночь
TTITLE5=Диск с даннами о заводе  - Data CD
EXTD=
EXTT0=
EXTT1=
EXTT2=
EXTT3=
EXTT4=
EXTT5=
PLAYORDER=
